<svg xmlns="http://www.w3.org/2000/svg" xmlns:xlink="http://www.w3.org/1999/xlink" width="25" height="25" viewBox="0 0 25 25"><path fill="#fff" d="M0 0h25v25H0z"/><path fill="#1B8DBB" d="M14.553 20.828c0 .695.53 1.254 1.19 1.254.657 0 1.196-.56 1.196-1.254v-2.602l4.812 4.816c.465.47 1.22.47 1.688 0 .465-.465.465-1.22 0-1.684l-4.793-4.793h2.59c.703 0 1.27-.535 1.27-1.19 0-.66-.566-1.192-1.27-1.192h-5.41c-.707 0-1.273.53-1.273 1.19 0 .02.004.032.008.052-.004.02-.008.043-.008.066v5.338zm9.235-4.078"/><defs><path id="a" d="M1.1 1.557h22.8V23.44H1.1z"/></defs><clipPath id="b"><use xlink:href="#a" overflow="visible"/></clipPath><path clip-path="url(#b)" fill="#1B8DBB" d="M3.137 23.047L7.95 18.23v2.603c0 .695.534 1.254 1.19 1.254.66 0 1.196-.56 1.196-1.254v-5.336c0-.023-.008-.047-.008-.07 0-.016.004-.03.008-.047-.004-.66-.57-1.195-1.273-1.195h-5.41c-.704 0-1.274.535-1.274 1.195 0 .656.57 1.19 1.272 1.19h2.586l-4.79 4.79c-.464.465-.464 1.223 0 1.688.467.468 1.22.468 1.69 0zm0 0M21.752 1.794L16.94 6.606v-2.6c0-.693-.54-1.25-1.196-1.255-.66 0-1.19.563-1.19 1.255v5.34c0 .02.003.046.007.066-.003.017-.007.032-.007.052 0 .66.57 1.19 1.273 1.19h5.41c.703 0 1.27-.53 1.27-1.19 0-.656-.566-1.196-1.27-1.196h-2.59l4.793-4.79c.464-.463.464-1.217 0-1.682-.47-.47-1.223-.47-1.688 0zm0 0M6.238 8.266H3.652c-.703 0-1.273.54-1.273 1.196 0 .66.57 1.19 1.272 1.19h5.41c.704 0 1.27-.53 1.274-1.19-.004-.02-.008-.035-.008-.05 0-.02.008-.044.008-.067v-5.34c0-.692-.535-1.254-1.195-1.254-.656.005-1.19.563-1.19 1.255v2.6l-4.813-4.81c-.47-.47-1.223-.47-1.688 0-.466.464-.466 1.218 0 1.682l4.788 4.79zm0 0"/></svg>