<svg xmlns="http://www.w3.org/2000/svg" xmlns:xlink="http://www.w3.org/1999/xlink" width="25" height="25" viewBox="0 0 25 25"><path fill="#fff" d="M0 0h25v25H0z"/><path fill="#1B8DBB" d="M23.788 16.75c0-.695-.53-1.254-1.19-1.254-.657 0-1.196.56-1.196 1.254v2.602l-4.813-4.816c-.466-.47-1.22-.47-1.69 0-.464.465-.464 1.22 0 1.684l4.794 4.793h-2.59c-.703 0-1.27.535-1.27 1.19 0 .66.566 1.192 1.27 1.192h5.41c.707 0 1.273-.53 1.273-1.19 0-.02-.004-.032-.008-.052.003-.02.007-.043.007-.066V16.75zm0 0"/><defs><path id="a" d="M1.1 1.557h22.8V23.44H1.1z"/></defs><clipPath id="b"><use xlink:href="#a" overflow="visible"/></clipPath><path clip-path="url(#b)" fill="#1B8DBB" d="M8.3 14.535L3.488 19.35v-2.6c0-.695-.535-1.254-1.192-1.254-.66 0-1.195.56-1.195 1.254v5.336c0 .023.01.047.01.07 0 .016-.005.03-.01.047.005.66.57 1.195 1.274 1.195h5.41c.704 0 1.274-.535 1.274-1.195 0-.656-.57-1.19-1.273-1.19H5.2l4.788-4.79c.465-.465.465-1.223 0-1.688-.466-.47-1.22-.47-1.688 0zm0 0M16.59 10.3L21.4 5.49v2.6c0 .692.54 1.25 1.195 1.254.66 0 1.19-.562 1.19-1.254V2.75c0-.02-.003-.046-.007-.066.004-.016.008-.03.008-.05 0-.66-.57-1.192-1.273-1.192h-5.41c-.703 0-1.27.53-1.27 1.19 0 .657.566 1.197 1.27 1.197h2.59l-4.793 4.788c-.465.464-.465 1.218 0 1.683.468.47 1.222.47 1.687 0zm0 0M5.2 3.83h2.585c.703 0 1.273-.54 1.273-1.197 0-.66-.57-1.19-1.273-1.19h-5.41c-.704 0-1.27.53-1.274 1.19.005.02.01.035.01.05 0 .02-.01.044-.01.067v5.34c0 .692.536 1.254 1.196 1.254.657-.004 1.192-.562 1.192-1.254v-2.6L8.3 10.3c.47.47 1.223.47 1.688 0 .465-.464.465-1.218 0-1.682l-4.79-4.79zm0 0"/></svg>