<svg style="background-color:blackat" xmlns="http://www.w3.org/2000/svg" width="300" height="300" viewBox="0 0 500 500" enable-background="new 0 0 500 500"><path xmlns="http://www.w3.org/2000/svg" fill="#fff" d="M423.74 196.275s-24-17.84-25.106-21.184c0 0-4.493-10.983-8.99-15.78-.33-.35-.653-.666-.98-.94-4.8-4.09 7.386-25.27-8.49-39.022 0 0-35.815-5.573-49.847-21.182 0 0-7.753-1.115-8.124-45.71 0 0-5.906 38.277 5.91 55.745 0 0-22.155-2.973-24.37-15.236 0 0-5.54-15.977.367-37.9-.326.588-16.07 29.218.74 52.02 0 0 15.507 11.15 37.662 12.636 0 0 23.63 6.318 24.736 23.04 0 0-5.17 2.604-5.17 7.434 0 0-7.383-9.29-13.29-10.776 0 0-7.384 7.804-2.956 21.183 0 0 3.694 6.318 7.756 8.548 0 0-23.63 26.758-51.322 36.79 0 0-7.385 2.975-22.892.743 0 0-17.354-12.262-70.52-13.377 0 0-48-11.52-72-5.946 0 0-20.308 4.46-36.554 21.556 0 0-23.63 4.087-28.428 18.58 0 0-8.123 11.148 21.043 34.933 0 0 33.97 28.987 38.4 38.277l-5.17 16.723s-3.692 5.947 9.602 12.264l5.538 4.088.37 7.805s3.322 6.69 9.968 10.777l37.66 40.135s.74 6.318 8.862 10.406l1.477-2.228 8.493 10.405 16.245 6.69 8.122 2.6-1.107-6.688-1.615-2.93s-7.615-6.362-12.046-7.477l-46.153-49.427 13.662 7.433s4.802 6.69 6.277 7.06l1.844-2.972s9.97 8.174 12.186 8.547c0 0 2.954 2.973 4.06 8.175l14.772 6.318-3.323-9.29 1.106-3.346s-8.862-10.034-14.03-13.006l-11.674-8.793 37.15-.87s11.076-1.114 12.924-3.716c0 0 6.274 4.088 12.182-1.487l44.31-26.385s20.306-8.214 8.86-18.413l-24.738-24.696s36.553-15.608 58.704-46.08c0 0 15.51-19.696 23.63-21.74 0 0 32.864-.187 46.155 7.617l6.644-3.345s4.063-1.485 3.324-2.6c0 0 5.908-1.487 3.692-5.576 0-.002 6.278-7.063-5.54-10.407zM225.1 341.95l-42.283 1.765-24.547-18.486s-5.906-17.503-2.216-22.13l8.122-26.554s33.6 15.608 59.815 16.352l9.23 43.11-8.12 5.943zm66.83-37.532c6.274 3.344 6.644 6.317 6.644 6.317-4.798 8.92-47.684 26.757-47.684 26.757-5.225-19.696 1.532-41.993 1.532-41.993 9.97-1.116 17.724-4.46 17.724-4.46 4.796 4.83 21.783 13.378 21.783 13.378z"/></svg>